<svg width="1074" height="662" viewBox="0 0 1074 662" fill="none" xmlns="http://www.w3.org/2000/svg">
<path opacity="0.3" d="M432.279 1226.12C319.052 1140.61 210.543 1063.38 124.68 953.966C39.7596 844.553 -21.5714 703.878 7.67879 581.593C35.9855 460.227 154.873 358.169 266.213 269.902C376.609 181.636 480.4 107.161 601.176 58.4311C721.951 9.70072 859.71 -13.2854 993.695 9.7007C1127.68 32.6867 1257.89 101.645 1342.81 204.622C1427.73 307.599 1468.3 444.596 1481.51 580.673C1494.72 717.67 1480.57 852.828 1440 992.583C1399.42 1132.34 1333.38 1276.69 1219.21 1362.2C1105.03 1447.71 942.743 1475.29 803.097 1441.27C663.45 1407.25 545.506 1312.55 432.279 1226.12Z" fill="url(#paint0_linear)"/>
<defs>
<linearGradient id="paint0_linear" x1="232.243" y1="-482.146" x2="680.261" y2="722.348" gradientUnits="userSpaceOnUse">
<stop stop-color="#FFDFDF"/>
<stop offset="0.6875" stop-color="#DFFDFF" stop-opacity="0.814597"/>
<stop offset="0.9999" stop-color="#FED085" stop-opacity="0.302083"/>
<stop offset="1" stop-color="#00FFD1" stop-opacity="0"/>
</linearGradient>
</defs>
</svg>
